<svg width="115" height="24" viewBox="0 0 115 24" fill="none" xmlns="http://www.w3.org/2000/svg">
<path d="M13.376 0.0880127V2.90401H2.944V10.168H12.352V12.92H2.944V20.184H13.376V23H0V0.0880127H13.376Z" fill="#8F71E6"/>
<path d="M16.5192 7.32001H19.3353V9.49601H19.4632C19.9112 8.72801 20.5939 8.08801 21.5112 7.57601C22.4499 7.06401 23.4206 6.80801 24.4233 6.80801C26.3433 6.80801 27.8153 7.36268 28.8393 8.47201C29.8846 9.56001 30.4072 11.1173 30.4072 13.144V23H27.4633V13.336C27.3993 10.776 26.1086 9.49601 23.5912 9.49601C22.4179 9.49601 21.4366 9.97601 20.6472 10.936C19.8579 11.8747 19.4632 13.0053 19.4632 14.328V23H16.5192V7.32001Z" fill="#8F71E6"/>
<path d="M35.8507 18.2C35.8507 18.968 36.1707 19.608 36.8107 20.12C37.4721 20.632 38.2401 20.888 39.1147 20.888C40.3521 20.888 41.4508 20.4293 42.4108 19.512C43.3921 18.5947 43.8828 17.5173 43.8828 16.28C42.9654 15.5547 41.6854 15.192 40.0428 15.192C38.8481 15.192 37.8454 15.48 37.0348 16.056C36.2454 16.632 35.8507 17.3467 35.8507 18.2ZM39.6587 6.80801C41.8347 6.80801 43.5521 7.39468 44.8107 8.56801C46.0694 9.72001 46.6987 11.3093 46.6987 13.336V23H43.8828V20.824H43.7547C42.5387 22.616 40.9174 23.512 38.8908 23.512C37.1628 23.512 35.7121 23 34.5387 21.976C33.3867 20.952 32.8107 19.672 32.8107 18.136C32.8107 16.5147 33.4188 15.224 34.6348 14.264C35.8721 13.304 37.5148 12.824 39.5628 12.824C41.3121 12.824 42.7521 13.144 43.8828 13.784V13.112C43.8828 12.088 43.4774 11.224 42.6668 10.52C41.8561 9.79468 40.9067 9.43201 39.8187 9.43201C38.1761 9.43201 36.8747 10.1253 35.9147 11.512L33.3228 9.88001C34.7521 7.83201 36.8641 6.80801 39.6587 6.80801Z" fill="#8F71E6"/>
<path d="M60.2593 14.296H50.0192V11.864H60.2593V14.296Z" fill="#8F71E6"/>
<path d="M70.0397 23.256C68.7598 23.256 67.6931 22.8613 66.8398 22.072C66.0078 21.2827 65.5811 20.184 65.5598 18.776V10.008H62.8078V7.32001H65.5598V2.52001H68.5038V7.32001H72.3438V10.008H68.5038V17.816C68.5038 18.8613 68.7064 19.576 69.1117 19.96C69.5171 20.3227 69.9757 20.504 70.4877 20.504C70.7224 20.504 70.9464 20.4827 71.1598 20.44C71.3944 20.376 71.6077 20.3013 71.7998 20.216L72.7278 22.84C71.9598 23.1173 71.0638 23.256 70.0397 23.256Z" fill="#8F71E6"/>
<path d="M78.5005 7.32001V23H75.5565V7.32001H78.5005Z" fill="#8F71E6"/>
<path d="M82.3317 7.32001H85.1478V9.49601H85.2757C85.7237 8.72801 86.4064 8.08801 87.3238 7.57601C88.2624 7.06401 89.2331 6.80801 90.2357 6.80801C92.1557 6.80801 93.6277 7.36268 94.6517 8.47201C95.6971 9.56001 96.2197 11.1173 96.2197 13.144V23H93.2757V13.336C93.2117 10.776 91.9211 9.49601 89.4037 9.49601C88.2304 9.49601 87.2491 9.97601 86.4597 10.936C85.6704 11.8747 85.2757 13.0053 85.2757 14.328V23H82.3317V7.32001Z" fill="#8F71E6"/>
<path d="M106.715 23.512C104.411 23.512 102.513 22.7227 101.02 21.144C99.5262 19.5653 98.7795 17.5707 98.7795 15.16C98.7795 12.7707 99.5048 10.7867 100.955 9.20801C102.406 7.60801 104.262 6.80801 106.523 6.80801C108.849 6.80801 110.694 7.56535 112.06 9.08001C113.446 10.5733 114.14 12.6747 114.14 15.384L114.107 15.704H101.787C101.83 17.24 102.342 18.4773 103.324 19.416C104.305 20.3547 105.478 20.824 106.843 20.824C108.721 20.824 110.193 19.8853 111.259 18.008L113.883 19.288C113.179 20.6107 112.198 21.6453 110.939 22.392C109.702 23.1387 108.294 23.512 106.715 23.512ZM102.011 13.272H111.004C110.918 12.184 110.47 11.288 109.66 10.584C108.87 9.85868 107.804 9.49601 106.46 9.49601C105.35 9.49601 104.39 9.83735 103.579 10.52C102.79 11.2027 102.267 12.12 102.011 13.272Z" fill="#8F71E6"/>
</svg>
